<?xml version="1.0" encoding="UTF-8"?>
<svg xmlns="http://www.w3.org/2000/svg" xmlns:xlink="http://www.w3.org/1999/xlink" width="808pt" height="620.57pt" viewBox="0 0 808 620.57" version="1.1">
<defs>
<clipPath id="clip1">
  <path d="M 0 255 L 706 255 L 706 620.570313 L 0 620.570313 Z M 0 255 "/>
</clipPath>
</defs>
<g id="surface1">
<path style=" stroke:none;fill-rule:nonzero;fill:rgb(5.499268%,58.399963%,27.799988%);fill-opacity:1;" d="M 279.386719 346.300781 C 274.5 352.523438 269.582031 358.726563 264.734375 364.980469 C 251.996094 381.417969 239.289063 397.882813 226.566406 414.328125 C 210.75 434.773438 194.933594 455.214844 179.109375 475.652344 C 175.960938 479.726563 172.738281 483.746094 169.65625 487.871094 C 168.726563 489.117188 167.75 489.734375 166.195313 489.550781 C 163.949219 489.285156 161.691406 489.117188 159.464844 488.914063 C 159.398438 488.777344 159.347656 488.695313 159.316406 488.601563 C 159.289063 488.515625 159.238281 488.382813 159.277344 488.332031 C 175.480469 466.570313 191.65625 444.785156 207.910156 423.058594 C 246.351563 371.675781 284.832031 320.316406 323.410156 268.792969 C 326.089844 271.273438 328.542969 273.550781 331.191406 276 C 323.058594 301.136719 314.898438 326.363281 306.773438 351.488281 C 307.054688 351.722656 307.113281 351.8125 307.179688 351.820313 C 307.273438 351.832031 307.402344 351.816406 307.464844 351.757813 C 307.679688 351.5625 307.894531 351.359375 308.074219 351.128906 C 347.152344 300.480469 386.230469 249.828125 425.308594 199.179688 C 425.367188 199.105469 425.472656 199.070313 425.796875 198.863281 C 426.699219 199.554688 427.679688 200.304688 428.820313 201.175781 C 371.632813 284.570313 314.589844 367.757813 257.414063 451.136719 C 255.835938 449.996094 254.421875 448.976563 252.933594 447.902344 C 254.414063 442.289063 255.835938 436.84375 257.296875 431.40625 C 263.429688 408.546875 269.582031 385.691406 275.710938 362.824219 C 277.144531 357.472656 278.492188 352.097656 279.882813 346.730469 C 280.003906 346.34375 280.128906 345.953125 280.25 345.566406 C 280.148438 345.523438 280.042969 345.480469 279.941406 345.441406 C 279.757813 345.726563 279.570313 346.011719 279.386719 346.300781 "/>
<path style=" stroke:none;fill-rule:nonzero;fill:rgb(5.499268%,58.399963%,27.799988%);fill-opacity:1;" d="M 229.128906 316.761719 C 228.914063 316.679688 216.058594 329.316406 211.523438 334.757813 C 215.992188 335.148438 219.871094 334.691406 224.074219 335.058594 C 225.09375 330.824219 228.503906 321.914063 229.128906 316.761719 M 230.222656 352.863281 L 219.058594 352.863281 C 219.058594 349.992188 219.976563 349.59375 221.828125 344.285156 C 216.789063 344.285156 209.1875 344.171875 204.371094 344.378906 C 203.277344 344.421875 202.128906 345.464844 201.195313 346.269531 C 199.253906 347.949219 198.132813 349.691406 196.394531 351.578125 C 195.246094 352.824219 193.179688 353.121094 191.632813 353.03125 C 188.6875 352.859375 185.734375 352.730469 182.277344 352.554688 C 184.007813 350.636719 185.433594 348.960938 186.953125 347.378906 C 192.847656 341.230469 198.796875 335.132813 204.671875 328.96875 C 212.1875 321.085938 219.652344 313.160156 227.136719 305.25 C 227.960938 304.378906 228.746094 303.589844 230.152344 303.703125 C 234.082031 304.011719 238.023438 304.191406 241.957031 304.457031 C 242.324219 304.484375 242.675781 304.757813 243.34375 305.050781 C 238.980469 320.941406 234.621094 336.839844 230.222656 352.863281 "/>
<path style=" stroke:none;fill-rule:nonzero;fill:rgb(5.499268%,58.399963%,28.199768%);fill-opacity:1;" d="M 642.59375 345.125 C 642.59375 345.597656 642.585938 345.996094 642.59375 346.394531 C 642.703125 350.71875 644.972656 353.097656 649.269531 352.941406 C 651.296875 352.871094 653.410156 352.425781 655.300781 351.675781 C 661.910156 349.058594 667.035156 344.390625 671.503906 339.007813 C 675.652344 334.011719 679.15625 328.582031 680.265625 322.023438 C 680.605469 320.035156 680.453125 317.878906 680.097656 315.875 C 679.703125 313.671875 678.148438 312.375 675.871094 311.8125 C 672.441406 310.96875 669.359375 312.011719 666.445313 313.480469 C 656.636719 318.445313 649.660156 326.238281 644.863281 336.046875 C 643.46875 338.898438 642.410156 341.914063 642.59375 345.125 M 647.34375 361.054688 C 639.550781 361.476563 633.8125 355.730469 633.660156 347.523438 C 633.558594 341.925781 635.078125 336.722656 637.496094 331.789063 C 642.886719 320.808594 650.929688 312.238281 661.605469 306.3125 C 666.304688 303.707031 671.359375 301.992188 676.898438 302.5 C 683.964844 303.144531 687.53125 307.800781 688.558594 313.601563 C 689.25 317.519531 688.738281 321.382813 687.488281 324.996094 C 681.964844 340.96875 671.695313 352.6875 656 359.296875 C 654.464844 359.941406 652.808594 360.339844 651.171875 360.6875 C 649.925781 360.949219 648.621094 360.941406 647.34375 361.054688 "/>
<path style=" stroke:none;fill-rule:nonzero;fill:rgb(5.499268%,58.399963%,27.799988%);fill-opacity:1;" d="M 408.855469 304.628906 C 416.417969 304.953125 423.960938 305.273438 431.898438 305.613281 C 429.898438 309.3125 428.078125 312.675781 426.105469 316.324219 C 422.761719 316.09375 419.324219 316.007813 415.925781 315.570313 C 413.855469 315.308594 412.617188 315.898438 411.570313 317.675781 C 410.375 319.699219 408.898438 321.5625 407.292969 323.851563 C 411.453125 324.265625 415.285156 324.640625 419.441406 325.050781 C 417.433594 328.535156 415.679688 331.738281 413.730469 334.816406 C 413.375 335.382813 412.226563 335.691406 411.445313 335.691406 C 408.886719 335.679688 405.132813 335.167969 402.589844 334.910156 C 400.460938 334.695313 396.792969 341.53125 395.511719 343.742188 C 399.242188 344.308594 403.078125 344.832031 406.691406 345.382813 C 405.542969 348.503906 404.492188 351.359375 403.3125 354.570313 C 394.75 353.929688 386.273438 353.296875 377.308594 352.625 C 388 336.363281 398.375 320.578125 408.855469 304.628906 "/>
<path style=" stroke:none;fill-rule:nonzero;fill:rgb(5.499268%,58.399963%,28.199768%);fill-opacity:1;" d="M 600.238281 306.476563 C 597.390625 310.902344 594.734375 312.925781 591.949219 317.257813 C 590.003906 316.957031 588.042969 316.792969 586.152344 316.335938 C 579.199219 314.648438 573.242188 318.859375 568.046875 323.351563 C 563.230469 327.519531 560.117188 332.929688 557.992188 338.890625 C 557.714844 339.671875 557.910156 340.894531 558.359375 341.613281 C 559.9375 344.140625 562.402344 345.460938 565.335938 345.40625 C 568.933594 345.339844 572.527344 344.9375 576.246094 344.675781 C 573.765625 348.160156 571.210938 351.753906 568.667969 355.324219 C 564.6875 355.5625 560.855469 355.5 557.085938 354.550781 C 548.707031 352.4375 546.121094 346.96875 547.351563 339.226563 C 548.398438 332.664063 551.769531 327.246094 555.894531 322.191406 C 563.125 313.324219 572.214844 307.691406 583.519531 305.753906 C 588.175781 304.953125 594.808594 305.167969 600.238281 306.476563 "/>
<path style=" stroke:none;fill-rule:nonzero;fill:rgb(5.499268%,58.399963%,27.799988%);fill-opacity:1;" d="M 457.210938 349.429688 C 459.480469 346.734375 461.5625 344.261719 463.679688 341.746094 C 467.070313 343.027344 470.390625 344.164063 473.890625 343.414063 C 475.980469 342.96875 478.09375 342.300781 479.976563 341.3125 C 483.09375 339.671875 484.363281 336.199219 483.078125 332.925781 C 482.367188 331.121094 481.109375 329.53125 480.089844 327.851563 C 479.636719 327.109375 478.8125 326.421875 478.734375 325.652344 C 478.234375 320.597656 478.53125 315.617188 482.308594 311.738281 C 488.828125 305.039063 500.539063 300.925781 509.683594 307.792969 C 509.992188 308.023438 510.253906 308.316406 510.65625 308.691406 C 507.441406 311.574219 504.308594 314.386719 501.125 317.246094 C 499.226563 315.457031 497.316406 314.125 494.703125 314.472656 C 492.660156 314.742188 490.773438 315.292969 489.996094 317.457031 C 489.214844 319.640625 489.355469 321.785156 491.019531 323.535156 C 494.1875 326.871094 496.023438 330.699219 495.234375 335.371094 C 494.925781 337.195313 494.40625 339.140625 493.414063 340.660156 C 488.730469 347.851563 482.808594 353.464844 473.828125 354.605469 C 467.601563 355.398438 462.257813 353.28125 457.210938 349.429688 "/>
<path style=" stroke:none;fill-rule:nonzero;fill:rgb(5.499268%,58.399963%,27.799988%);fill-opacity:1;" d="M 142.203125 312.703125 C 139.171875 312.109375 131.933594 313.210938 129.144531 312.660156 C 129.917969 309.289063 135.390625 305.339844 136.207031 301.777344 C 148.191406 301.546875 160.210938 302.203125 172.753906 301.878906 C 170.542969 306.039063 168.523438 309.835938 166.378906 313.878906 C 162.894531 313.878906 159.347656 313.988281 155.808594 313.835938 C 153.699219 313.746094 152.503906 314.441406 151.3125 316.289063 C 144.238281 327.285156 136.957031 338.148438 129.785156 349.085938 C 128.984375 350.304688 128.164063 350.785156 126.625 350.535156 C 123.828125 350.078125 120.988281 349.929688 117.605469 349.597656 C 125.890625 337.441406 133.921875 324.863281 142.203125 312.703125 "/>
<path style=" stroke:none;fill-rule:nonzero;fill:rgb(6.698608%,59.199524%,28.599548%);fill-opacity:1;" d="M 428.085938 193.113281 C 429.582031 191.996094 430.890625 190.746094 432.421875 189.925781 C 437.640625 187.121094 442.792969 184.109375 448.261719 181.894531 C 451.351563 180.644531 455.007813 180.410156 458.410156 180.402344 C 467.589844 180.382813 476.777344 180.574219 485.949219 180.972656 C 494.902344 181.363281 503.84375 182.109375 512.789063 182.726563 C 513.664063 182.785156 514.566406 182.925781 515.394531 183.21875 C 516.402344 183.574219 517.066406 184.34375 516.765625 185.515625 C 516.484375 186.59375 515.726563 187.148438 514.589844 187.125 C 507.578125 186.988281 500.570313 186.863281 493.5625 186.714844 C 488.136719 186.597656 482.714844 186.390625 477.285156 186.34375 C 474.828125 186.320313 472.363281 186.507813 469.917969 186.761719 C 469.09375 186.847656 468.3125 187.421875 467.519531 187.78125 C 464.5625 189.117188 461.660156 190.605469 458.632813 191.746094 C 456.289063 192.625 453.828125 192.339844 451.339844 191.863281 C 449.464844 191.503906 447.34375 191.480469 445.523438 191.992188 C 441.546875 193.109375 437.65625 194.578125 433.796875 196.066406 C 430.757813 197.238281 430.296875 197.1875 428.640625 194.378906 C 428.488281 194.128906 428.402344 193.84375 428.085938 193.113281 "/>
<path style=" stroke:none;fill-rule:nonzero;fill:rgb(5.499268%,58.399963%,28.199768%);fill-opacity:1;" d="M 443.132813 138.175781 C 441.152344 139.257813 439.351563 139.460938 437.097656 138.410156 C 433.773438 136.863281 430.140625 136.171875 426.464844 137.339844 C 425.445313 137.660156 424.332031 138.054688 423.574219 138.757813 C 420.597656 141.527344 419.480469 144.347656 422.835938 147.5625 C 426.347656 150.925781 430.574219 152.972656 435.046875 154.621094 C 436.621094 155.199219 438.199219 155.789063 439.820313 156.195313 C 441.558594 156.632813 441.789063 157.976563 441.972656 159.355469 C 442.164063 160.8125 441.511719 161.933594 440.121094 162.375 C 434.039063 164.296875 428.085938 164.039063 423.054688 159.863281 C 420.289063 157.570313 418.078125 154.523438 415.921875 151.59375 C 413.890625 148.828125 413.019531 145.589844 413.222656 142.066406 C 413.378906 139.414063 414.285156 137.363281 416.519531 135.792969 C 424.941406 129.867188 435.386719 130.53125 442.867188 137.566406 C 443 137.691406 443.027344 137.921875 443.132813 138.175781 "/>
<path style=" stroke:none;fill-rule:nonzero;fill:rgb(6.698608%,59.199524%,28.999329%);fill-opacity:1;" d="M 514.820313 168.398438 C 511.691406 167.5 508.546875 166.65625 505.441406 165.6875 C 500.164063 164.042969 494.910156 162.320313 489.648438 160.621094 C 489.1875 160.472656 488.753906 160.234375 488.355469 160.0625 C 487.804688 156.050781 487.214844 152.152344 486.757813 148.234375 C 486.484375 145.902344 485.324219 144.183594 483.582031 142.765625 C 480.054688 139.898438 476.519531 137.039063 472.984375 134.183594 C 471.917969 133.324219 470.726563 132.574219 470.378906 131.207031 C 471.089844 129.914063 471.941406 130.144531 472.980469 130.519531 C 476.75 131.886719 480.105469 133.945313 483.136719 136.535156 C 487.78125 140.496094 491.597656 145.160156 494.082031 150.769531 C 495.277344 153.46875 497.300781 155.308594 499.539063 156.878906 C 504.390625 160.277344 509.402344 163.441406 514.351563 166.703125 C 514.925781 167.078125 515.515625 167.4375 516.097656 167.804688 C 515.671875 168.003906 515.246094 168.199219 514.820313 168.398438 "/>
<path style=" stroke:none;fill-rule:nonzero;fill:rgb(6.698608%,59.199524%,28.599548%);fill-opacity:1;" d="M 453.597656 125.882813 C 452.320313 126.324219 452.046875 125.292969 451.574219 124.597656 C 450.242188 122.632813 449.019531 120.539063 446.824219 119.402344 C 445.644531 118.792969 444.355469 118.398438 443.214844 117.945313 C 440.152344 122.234375 437.761719 122.746094 433.445313 120.183594 C 432.1875 119.4375 430.96875 118.523438 429.980469 117.453125 C 426.839844 114.058594 428.753906 108.472656 433.316406 107.523438 C 437.3125 106.695313 440.972656 107.507813 444.144531 110.066406 C 449.007813 113.984375 451.867188 119.242188 453.777344 125.085938 C 453.851563 125.316406 453.660156 125.636719 453.597656 125.882813 "/>
<path style=" stroke:none;fill-rule:nonzero;fill:rgb(7.798767%,59.199524%,29.399109%);fill-opacity:1;" d="M 461.585938 116.941406 C 460.089844 114.054688 459.128906 111.347656 455.882813 110.183594 C 455.550781 110.800781 455.253906 111.378906 454.929688 111.941406 C 453.832031 113.871094 452.710938 114.171875 450.871094 112.894531 C 450.074219 112.34375 449.332031 111.652344 448.714844 110.902344 C 447.363281 109.257813 447.179688 106.972656 448.15625 105.417969 C 449.027344 104.027344 451.980469 102.925781 453.671875 103.359375 C 457.480469 104.335938 461.613281 108.992188 461.949219 112.914063 C 462.0625 114.234375 461.71875 115.597656 461.585938 116.941406 "/>
<path style=" stroke:none;fill-rule:nonzero;fill:rgb(8.999634%,59.999084%,30.599976%);fill-opacity:1;" d="M 469.660156 149.234375 C 471.664063 149.574219 473.363281 149.964844 474.5625 151.464844 C 475.683594 152.859375 475.484375 153.980469 473.964844 154.828125 C 471.871094 155.996094 468.171875 155.089844 466.824219 153.074219 C 466.019531 151.878906 466.179688 150.796875 467.410156 150.082031 C 468.152344 149.652344 469.03125 149.464844 469.660156 149.234375 "/>
<path style=" stroke:none;fill-rule:nonzero;fill:rgb(23.098755%,63.499451%,40.79895%);fill-opacity:1;" d="M 514.820313 168.398438 C 515.246094 168.199219 515.671875 168.003906 516.097656 167.804688 C 517.757813 168.582031 519.417969 169.355469 521.296875 170.234375 C 519.402344 170.765625 519.402344 170.765625 514.820313 168.398438 "/>
<path style=" stroke:none;fill-rule:nonzero;fill:rgb(98.799133%,81.199646%,3.49884%);fill-opacity:1;" d="M 122.109375 174.0625 C 122.109375 174.0625 336.738281 11.960938 602.402344 83.257813 C 602.402344 83.257813 842.546875 139.539063 743.488281 357.921875 C 743.488281 357.921875 839.113281 275.351563 797.519531 132.785156 C 797.519531 132.785156 756.246094 -28.5625 491.335938 4.457031 C 491.335938 4.457031 304.472656 14.214844 122.109375 174.0625 "/>
<g clip-path="url(#clip1)" clip-rule="nonzero">
<path style=" stroke:none;fill-rule:nonzero;fill:rgb(3.898621%,57.998657%,28.199768%);fill-opacity:1;" d="M 705.59375 423.171875 C 705.59375 423.171875 478.453125 595.675781 211.824219 528.097656 C 211.824219 528.097656 -29.085938 475.175781 66.917969 255.429688 C 66.917969 255.429688 -32.535156 343.109375 11.042969 485.082031 C 11.042969 485.082031 69.691406 652.007813 334.117188 615.292969 C 334.117188 615.292969 525.480469 585.546875 705.59375 423.171875 "/>
</g>
</g>
</svg>
